<?xml version="1.0" encoding="UTF-8"?>
<svg id="Layer_1" data-name="Layer 1" xmlns="http://www.w3.org/2000/svg" viewBox="0 0 91.293 27.681">
  <defs>
    <style>
      .cls-1 {
        fill: #432f2e;
      }
    </style>
  </defs>
  <path class="cls-1" d="M18.718,18.682H3.131c.324,4.283,2.592,6.299,6.479,6.299,3.636,0,5.039-1.728,5.76-3.779h3.131c-.684,3.419-3.312,6.479-8.963,6.479-5.831,0-9.538-3.708-9.538-9.575v-.648C0,11.591,3.707,7.883,9.646,7.883c5.651,0,9.215,3.563,9.215,8.927,0,.792-.036,1.26-.144,1.872ZM3.167,16.234h12.599c-.288-3.888-2.447-5.795-6.119-5.795-3.779,0-6.047,1.872-6.479,5.795Z"/>
  <path class="cls-1" d="M26.53,27.321h-3.06V1.044h3.06v26.277Z"/>
  <path class="cls-1" d="M49.857,18.682h-15.587c.324,4.283,2.592,6.299,6.479,6.299,3.636,0,5.039-1.728,5.76-3.779h3.131c-.684,3.419-3.312,6.479-8.963,6.479-5.831,0-9.538-3.708-9.538-9.575v-.648c0-5.867,3.707-9.575,9.646-9.575,5.651,0,9.215,3.563,9.215,8.927,0,.792-.036,1.26-.144,1.872ZM34.307,16.234h12.599c-.288-3.888-2.447-5.795-6.119-5.795-3.779,0-6.047,1.872-6.479,5.795Z"/>
  <path class="cls-1" d="M67.317,8.243h3.275l-8.352,19.078h-2.447l-8.315-19.078h3.312l6.263,14.614,6.264-14.614Z"/>
  <path class="cls-1" d="M91.149,18.682h-15.587c.324,4.283,2.592,6.299,6.479,6.299,3.636,0,5.039-1.728,5.76-3.779h3.131c-.684,3.419-3.312,6.479-8.963,6.479-5.831,0-9.538-3.708-9.538-9.575v-.648c0-5.867,3.707-9.575,9.646-9.575,5.651,0,9.215,3.563,9.215,8.927,0,.792-.036,1.26-.144,1.872ZM75.599,16.234h12.599c-.288-3.888-2.447-5.795-6.119-5.795-3.779,0-6.047,1.872-6.479,5.795ZM83.194,5.651l4.319-5.651h-3.815l-3.204,5.651h2.7Z"/>
</svg>