<?xml version="1.0" encoding="UTF-8"?>
<svg id="Layer_1" data-name="Layer 1" xmlns="http://www.w3.org/2000/svg" viewBox="0 0 129.42 38.73">
  <defs>
    <style>
      .cls-1 {
        fill: #0259a2;
      }
    </style>
  </defs>
  <path class="cls-1" d="M84.95,23.09c3.63-1.11,5.67-5.14,9.4-5.39.83-.06,1.56.62,1.5,1.45-.33,4.96-5.28,9.39-4.11,14.38.08.33.4.55.74.52,9.09-.83,10.85-14.83,19.66-16.64,8.03-1.66,11.28,4.43,4.18,9.43-2.23,1.57-7.01,3.37-9.09,4.55-.88.49-.1,1.64.99,2.33,1.95,1.31,5.13.1,7.18-.67,3.76-1.41,7.47-3.78,10.97-5.83.46-.27,1.01-.34,1.53-.2h0c1.4.37,2,2.07,1.09,3.2-1.67,2.06-5.83,4.01-7.23,4.69-4.93,2.41-12.49,5.15-17.64,2.15-.95-.55-2.08-2.42-2.98-2.33-3.07,2.25-10.91,6.65-13.06,1.42-1.27-3.1-.82-5.16-.24-7.7.36-1.6.74-1.6.18-1.6-.85,0-6.74,2.4-7.32,2.81-.62.44-.69,1.59-1.33,2.27-2.67,2.81-8.4,7.51-12.48,6.46-1.93-.5-3.06-2.81-4.73-2.8-3.19.01-9.05,7.15-12.83-.14-.09-.18-.32-.28-.5-.19-3.36,1.52-7.35,5.33-10.87,2.14s-.43-8.46-.46-11.91c0-.76.33-1.44-.77-1.26-5.83,2.55-4.79,3.59-10.3,6.83-6.61,3.88-5.9-1.36-5.61-4.22.1-.93.71-4.19-.56-4.11-3.25.21-8.93,8.63-11.4,10.99-1.45,1.38-6.22,5.66-7.97,4.37-3.4-2.52,3.95-6.86,5.85-8.69,4.12-3.98,8.09-11.39,14.54-12,7.45-.7,2.43,8.21,4.65,8.7.09.02.2,0,.28-.06,5.36-3.15,5.76-6.15,13.25-6.83s-.91,14.03,2.29,14.94c1.35.39,5.87-4.08,6.7-5.2,2.37-3.19,2.82-6.65,6.47-9.43,5.71-4.34,6.56-.66,11.23-.69,1.41,0,2.38-.78,3.58-.99.72-.13,1.37.49,1.27,1.21-.72,5.18-6.2,9.96-5.11,13.58s9.07-1.9,9.76-3.47c.37-.86-.11-4,.97-6.43,2.61-5.85,9.89-9.61,7.87-.11-.06.28.19.54.46.46ZM59.36,21.51c-6.01,1.05-10,16.29-1.27,11.15,4.8-2.82,7.91-12.31,1.27-11.15ZM115.59,22.45c1.37-1.27.49-2.15-.26-2.38-.58-.18-1.19-.25-1.78-.13-2.49.51-5.85,3.42-6.34,5.8.15,2.76,5.01-.19,8.37-3.29Z"/>
  <path class="cls-1" d="M114.75,13.18c-1.95-1.21,3.45-7.45,4.44-8.6,1.47-1.72,3.48-5.11,5.99-4.51,2.45,1.76-5.94,11.67-7.72,12.7-.71.41-2.05.82-2.71.41Z"/>
</svg>